<svg width="265" height="72" viewBox="0 0 265 72" fill="none" xmlns="http://www.w3.org/2000/svg">
<path d="M56.4395 50.8232H53.4336V56H51.7373V43.2031H55.9736C57.415 43.2031 58.5225 43.5312 59.2959 44.1875C60.0752 44.8438 60.4648 45.7988 60.4648 47.0527C60.4648 47.8496 60.248 48.5439 59.8145 49.1357C59.3867 49.7275 58.7891 50.1699 58.0215 50.4629L61.0273 55.8945V56H59.2168L56.4395 50.8232ZM53.4336 49.4434H56.0264C56.8643 49.4434 57.5293 49.2266 58.0215 48.793C58.5195 48.3594 58.7686 47.7793 58.7686 47.0527C58.7686 46.2617 58.5312 45.6553 58.0566 45.2334C57.5879 44.8115 56.9082 44.5977 56.0176 44.5918H53.4336V49.4434ZM72.2861 54.3213C71.8525 54.9424 71.2461 55.4082 70.4668 55.7188C69.6934 56.0234 68.791 56.1758 67.7598 56.1758C66.7168 56.1758 65.791 55.9326 64.9824 55.4463C64.1738 54.9541 63.5469 54.2568 63.1016 53.3545C62.6621 52.4521 62.4365 51.4062 62.4248 50.2168V49.1006C62.4248 47.1729 62.873 45.6787 63.7695 44.6182C64.6719 43.5576 65.9375 43.0273 67.5664 43.0273C68.9023 43.0273 69.9775 43.3701 70.792 44.0557C71.6064 44.7354 72.1045 45.7021 72.2861 46.9561H70.5986C70.2822 45.2627 69.2744 44.416 67.5752 44.416C66.4443 44.416 65.5859 44.8145 65 45.6113C64.4199 46.4023 64.127 47.5508 64.1211 49.0566V50.1025C64.1211 51.5381 64.4492 52.6807 65.1055 53.5303C65.7617 54.374 66.6494 54.7959 67.7686 54.7959C68.4014 54.7959 68.9551 54.7256 69.4297 54.585C69.9043 54.4443 70.2969 54.207 70.6074 53.873V50.999H67.6455V49.6279H72.2861V54.3213ZM82.8945 50.252H81.3389V56H79.6514V43.2031H81.3389V48.8457H82.6572L87.1309 43.2031H89.2314L84.3447 49.4082L89.5918 56H87.5264L82.8945 50.252ZM96.7549 56C96.6611 55.8125 96.585 55.4785 96.5264 54.998C95.7705 55.7832 94.8682 56.1758 93.8193 56.1758C92.8818 56.1758 92.1113 55.9121 91.5078 55.3848C90.9102 54.8516 90.6113 54.1777 90.6113 53.3633C90.6113 52.373 90.9863 51.6055 91.7363 51.0605C92.4922 50.5098 93.5527 50.2344 94.918 50.2344H96.5V49.4873C96.5 48.9189 96.3301 48.4678 95.9902 48.1338C95.6504 47.7939 95.1494 47.624 94.4873 47.624C93.9072 47.624 93.4209 47.7705 93.0283 48.0635C92.6357 48.3564 92.4395 48.7109 92.4395 49.127H90.8047C90.8047 48.6523 90.9717 48.1953 91.3057 47.7559C91.6455 47.3105 92.1025 46.959 92.6768 46.7012C93.2568 46.4434 93.8926 46.3145 94.584 46.3145C95.6797 46.3145 96.5381 46.5898 97.1592 47.1406C97.7803 47.6855 98.1025 48.4385 98.126 49.3994V53.7764C98.126 54.6494 98.2373 55.3438 98.46 55.8594V56H96.7549ZM94.0566 54.7607C94.5664 54.7607 95.0498 54.6289 95.5068 54.3652C95.9639 54.1016 96.2949 53.7588 96.5 53.3369V51.3857H95.2256C93.2334 51.3857 92.2373 51.9688 92.2373 53.1348C92.2373 53.6445 92.4072 54.043 92.7471 54.3301C93.0869 54.6172 93.5234 54.7607 94.0566 54.7607ZM100.824 56V46.4902H104.533C105.799 46.4902 106.769 46.7129 107.442 47.1582C108.122 47.5977 108.462 48.2451 108.462 49.1006C108.462 49.54 108.33 49.9385 108.066 50.2959C107.803 50.6475 107.413 50.917 106.897 51.1045C107.472 51.2393 107.932 51.5029 108.277 51.8955C108.629 52.2881 108.805 52.7568 108.805 53.3018C108.805 54.1748 108.482 54.8428 107.838 55.3057C107.199 55.7686 106.294 56 105.122 56H100.824ZM102.45 51.8252V54.6904H105.14C105.819 54.6904 106.326 54.5645 106.66 54.3125C107 54.0605 107.17 53.7061 107.17 53.249C107.17 52.2998 106.473 51.8252 105.078 51.8252H102.45ZM102.45 50.5244H104.551C106.074 50.5244 106.836 50.0791 106.836 49.1885C106.836 48.2979 106.115 47.8379 104.674 47.8086H102.45V50.5244ZM116.829 56C116.735 55.8125 116.659 55.4785 116.601 54.998C115.845 55.7832 114.942 56.1758 113.894 56.1758C112.956 56.1758 112.186 55.9121 111.582 55.3848C110.984 54.8516 110.686 54.1777 110.686 53.3633C110.686 52.373 111.061 51.6055 111.811 51.0605C112.566 50.5098 113.627 50.2344 114.992 50.2344H116.574V49.4873C116.574 48.9189 116.404 48.4678 116.064 48.1338C115.725 47.7939 115.224 47.624 114.562 47.624C113.981 47.624 113.495 47.7705 113.103 48.0635C112.71 48.3564 112.514 48.7109 112.514 49.127H110.879C110.879 48.6523 111.046 48.1953 111.38 47.7559C111.72 47.3105 112.177 46.959 112.751 46.7012C113.331 46.4434 113.967 46.3145 114.658 46.3145C115.754 46.3145 116.612 46.5898 117.233 47.1406C117.854 47.6855 118.177 48.4385 118.2 49.3994V53.7764C118.2 54.6494 118.312 55.3438 118.534 55.8594V56H116.829ZM114.131 54.7607C114.641 54.7607 115.124 54.6289 115.581 54.3652C116.038 54.1016 116.369 53.7588 116.574 53.3369V51.3857H115.3C113.308 51.3857 112.312 51.9688 112.312 53.1348C112.312 53.6445 112.481 54.043 112.821 54.3301C113.161 54.6172 113.598 54.7607 114.131 54.7607ZM128.545 46.4902V56H126.91V47.835H123.676L123.482 51.3945C123.377 53.0293 123.102 54.1982 122.656 54.9014C122.217 55.6045 121.517 55.9707 120.556 56H119.905V54.5674L120.371 54.5322C120.898 54.4736 121.276 54.1689 121.505 53.6182C121.733 53.0674 121.88 52.0479 121.944 50.5596L122.12 46.4902H128.545ZM135.102 56.1758C133.812 56.1758 132.764 55.7539 131.955 54.9102C131.146 54.0605 130.742 52.9268 130.742 51.5088V51.21C130.742 50.2666 130.921 49.4258 131.278 48.6875C131.642 47.9434 132.146 47.3633 132.79 46.9473C133.44 46.5254 134.144 46.3145 134.899 46.3145C136.136 46.3145 137.097 46.7217 137.782 47.5361C138.468 48.3506 138.811 49.5166 138.811 51.0342V51.7109H132.368C132.392 52.6484 132.664 53.4072 133.186 53.9873C133.713 54.5615 134.381 54.8486 135.189 54.8486C135.764 54.8486 136.25 54.7314 136.648 54.4971C137.047 54.2627 137.396 53.9521 137.694 53.5654L138.688 54.3389C137.891 55.5635 136.695 56.1758 135.102 56.1758ZM134.899 47.6504C134.243 47.6504 133.692 47.8906 133.247 48.3711C132.802 48.8457 132.526 49.5137 132.421 50.375H137.185V50.252C137.138 49.4258 136.915 48.7871 136.517 48.3359C136.118 47.8789 135.579 47.6504 134.899 47.6504ZM148.733 51.3506C148.733 52.7979 148.402 53.9639 147.74 54.8486C147.078 55.7334 146.182 56.1758 145.051 56.1758C143.896 56.1758 142.988 55.8096 142.326 55.0771V59.6562H140.7V46.4902H142.186L142.265 47.5449C142.927 46.7246 143.847 46.3145 145.024 46.3145C146.167 46.3145 147.069 46.7451 147.731 47.6064C148.399 48.4678 148.733 49.666 148.733 51.2012V51.3506ZM147.107 51.166C147.107 50.0938 146.879 49.2471 146.422 48.626C145.965 48.0049 145.338 47.6943 144.541 47.6943C143.557 47.6943 142.818 48.1309 142.326 49.0039V53.5479C142.812 54.415 143.557 54.8486 144.559 54.8486C145.338 54.8486 145.956 54.541 146.413 53.9258C146.876 53.3047 147.107 52.3848 147.107 51.166ZM156.96 46.4902H158.586V56H156.96V49.0654L152.574 56H150.948V46.4902H152.574V53.4336L156.96 46.4902ZM168.465 46.4902V56H166.83V52.2998H164.378L162.137 56H160.379L162.77 52.0537C162.16 51.8311 161.691 51.4883 161.363 51.0254C161.041 50.5566 160.88 50.0117 160.88 49.3906C160.88 48.5234 161.205 47.8262 161.855 47.2988C162.506 46.7656 163.376 46.4961 164.466 46.4902H168.465ZM162.515 49.4082C162.515 49.8711 162.673 50.2461 162.989 50.5332C163.306 50.8145 163.725 50.958 164.246 50.9639H166.83V47.8086H164.492C163.889 47.8086 163.408 47.958 163.051 48.2568C162.693 48.5498 162.515 48.9336 162.515 49.4082ZM183.758 56H175.373V54.8311L179.803 49.9092C180.459 49.165 180.91 48.5615 181.156 48.0986C181.408 47.6299 181.534 47.1465 181.534 46.6484C181.534 45.9805 181.332 45.4326 180.928 45.0049C180.523 44.5771 179.984 44.3633 179.311 44.3633C178.502 44.3633 177.872 44.5947 177.421 45.0576C176.976 45.5146 176.753 46.1533 176.753 46.9736H175.127C175.127 45.7959 175.505 44.8438 176.261 44.1172C177.022 43.3906 178.039 43.0273 179.311 43.0273C180.5 43.0273 181.44 43.3408 182.132 43.9678C182.823 44.5889 183.169 45.418 183.169 46.4551C183.169 47.7148 182.366 49.2148 180.761 50.9551L177.333 54.6729H183.758V56ZM193.505 50.542C193.505 52.4463 193.18 53.8613 192.529 54.7871C191.879 55.7129 190.862 56.1758 189.479 56.1758C188.114 56.1758 187.104 55.7246 186.447 54.8223C185.791 53.9141 185.451 52.5605 185.428 50.7617V48.5908C185.428 46.71 185.753 45.3125 186.403 44.3984C187.054 43.4844 188.073 43.0273 189.462 43.0273C190.839 43.0273 191.853 43.4697 192.503 44.3545C193.153 45.2334 193.487 46.5928 193.505 48.4326V50.542ZM191.879 48.3184C191.879 46.9414 191.686 45.9395 191.299 45.3125C190.912 44.6797 190.3 44.3633 189.462 44.3633C188.63 44.3633 188.023 44.6768 187.643 45.3037C187.262 45.9307 187.065 46.8945 187.054 48.1953V50.7969C187.054 52.1797 187.253 53.2021 187.651 53.8643C188.056 54.5205 188.665 54.8486 189.479 54.8486C190.282 54.8486 190.877 54.5381 191.264 53.917C191.656 53.2959 191.861 52.3174 191.879 50.9814V48.3184ZM203.973 56H195.588V54.8311L200.018 49.9092C200.674 49.165 201.125 48.5615 201.371 48.0986C201.623 47.6299 201.749 47.1465 201.749 46.6484C201.749 45.9805 201.547 45.4326 201.143 45.0049C200.738 44.5771 200.199 44.3633 199.525 44.3633C198.717 44.3633 198.087 44.5947 197.636 45.0576C197.19 45.5146 196.968 46.1533 196.968 46.9736H195.342C195.342 45.7959 195.72 44.8438 196.476 44.1172C197.237 43.3906 198.254 43.0273 199.525 43.0273C200.715 43.0273 201.655 43.3408 202.347 43.9678C203.038 44.5889 203.384 45.418 203.384 46.4551C203.384 47.7148 202.581 49.2148 200.976 50.9551L197.548 54.6729H203.973V56ZM213.72 50.542C213.72 52.4463 213.395 53.8613 212.744 54.7871C212.094 55.7129 211.077 56.1758 209.694 56.1758C208.329 56.1758 207.318 55.7246 206.662 54.8223C206.006 53.9141 205.666 52.5605 205.643 50.7617V48.5908C205.643 46.71 205.968 45.3125 206.618 44.3984C207.269 43.4844 208.288 43.0273 209.677 43.0273C211.054 43.0273 212.067 43.4697 212.718 44.3545C213.368 45.2334 213.702 46.5928 213.72 48.4326V50.542ZM212.094 48.3184C212.094 46.9414 211.9 45.9395 211.514 45.3125C211.127 44.6797 210.515 44.3633 209.677 44.3633C208.845 44.3633 208.238 44.6768 207.857 45.3037C207.477 45.9307 207.28 46.8945 207.269 48.1953V50.7969C207.269 52.1797 207.468 53.2021 207.866 53.8643C208.271 54.5205 208.88 54.8486 209.694 54.8486C210.497 54.8486 211.092 54.5381 211.479 53.917C211.871 53.2959 212.076 52.3174 212.094 50.9814V48.3184Z" fill="white" fill-opacity="0.65"/>
<rect x="114" y="1" width="42" height="21" stroke="#00C2FF" stroke-width="2"/>
<path d="M123.636 12.8232H120.63V18H118.934V5.20312H123.17C124.611 5.20312 125.719 5.53125 126.492 6.1875C127.271 6.84375 127.661 7.79883 127.661 9.05273C127.661 9.84961 127.444 10.5439 127.011 11.1357C126.583 11.7275 125.985 12.1699 125.218 12.4629L128.224 17.8945V18H126.413L123.636 12.8232ZM120.63 11.4434H123.223C124.061 11.4434 124.726 11.2266 125.218 10.793C125.716 10.3594 125.965 9.7793 125.965 9.05273C125.965 8.26172 125.728 7.65527 125.253 7.2334C124.784 6.81152 124.104 6.59766 123.214 6.5918H120.63V11.4434ZM139.482 16.3213C139.049 16.9424 138.442 17.4082 137.663 17.7188C136.89 18.0234 135.987 18.1758 134.956 18.1758C133.913 18.1758 132.987 17.9326 132.179 17.4463C131.37 16.9541 130.743 16.2568 130.298 15.3545C129.858 14.4521 129.633 13.4062 129.621 12.2168V11.1006C129.621 9.17285 130.069 7.67871 130.966 6.61816C131.868 5.55762 133.134 5.02734 134.763 5.02734C136.099 5.02734 137.174 5.37012 137.988 6.05566C138.803 6.73535 139.301 7.70215 139.482 8.95605H137.795C137.479 7.2627 136.471 6.41602 134.771 6.41602C133.641 6.41602 132.782 6.81445 132.196 7.61133C131.616 8.40234 131.323 9.55078 131.317 11.0566V12.1025C131.317 13.5381 131.646 14.6807 132.302 15.5303C132.958 16.374 133.846 16.7959 134.965 16.7959C135.598 16.7959 136.151 16.7256 136.626 16.585C137.101 16.4443 137.493 16.207 137.804 15.873V12.999H134.842V11.6279H139.482V16.3213ZM151.717 13.9395C151.559 15.293 151.058 16.3389 150.214 17.0771C149.376 17.8096 148.26 18.1758 146.865 18.1758C145.354 18.1758 144.141 17.6338 143.227 16.5498C142.318 15.4658 141.864 14.0156 141.864 12.1992V10.9688C141.864 9.7793 142.075 8.7334 142.497 7.83105C142.925 6.92871 143.528 6.2373 144.308 5.75684C145.087 5.27051 145.989 5.02734 147.015 5.02734C148.374 5.02734 149.464 5.4082 150.284 6.16992C151.104 6.92578 151.582 7.97461 151.717 9.31641H150.021C149.874 8.29688 149.555 7.55859 149.062 7.10156C148.576 6.64453 147.894 6.41602 147.015 6.41602C145.937 6.41602 145.09 6.81445 144.475 7.61133C143.865 8.4082 143.561 9.54199 143.561 11.0127V12.252C143.561 13.6406 143.851 14.7451 144.431 15.5654C145.011 16.3857 145.822 16.7959 146.865 16.7959C147.803 16.7959 148.521 16.585 149.019 16.1631C149.522 15.7354 149.856 14.9941 150.021 13.9395H151.717Z" fill="#00C2FF"/>
<path d="M108 5L113 0V23H157L152 28H108V5Z" fill="#00C2FF"/>
</svg>
